<?xml version="1.0" encoding="UTF-8"?>
<!DOCTYPE svg PUBLIC "-//W3C//DTD SVG 1.1//EN" "http://www.w3.org/Graphics/SVG/1.1/DTD/svg11.dtd">
<svg xmlns="http://www.w3.org/2000/svg" version="1.1" width="200px" height="200px" style="shape-rendering:geometricPrecision; text-rendering:geometricPrecision; image-rendering:optimizeQuality; fill-rule:evenodd; clip-rule:evenodd" xmlns:xlink="http://www.w3.org/1999/xlink">
<g><path style="opacity:1" fill="#fdfdfd" d="M -0.5,-0.5 C 66.1667,-0.5 132.833,-0.5 199.5,-0.5C 199.5,66.1667 199.5,132.833 199.5,199.5C 132.833,199.5 66.1667,199.5 -0.5,199.5C -0.5,132.833 -0.5,66.1667 -0.5,-0.5 Z"/></g>
<g><path style="opacity:1" fill="#342c2b" d="M 188.5,89.5 C 188.666,95.5092 188.499,101.509 188,107.5C 187.802,109.382 187.302,111.048 186.5,112.5C 187.658,103.344 187.658,94.3444 186.5,85.5C 185.766,84.2921 185.433,82.9587 185.5,81.5C 184.462,75.3514 182.796,69.3514 180.5,63.5C 180.167,64.1667 179.833,64.8333 179.5,65.5C 180.865,68.6866 181.699,72.0199 182,75.5C 182.5,83.1594 182.666,90.8261 182.5,98.5C 182.11,105.602 179.776,111.936 175.5,117.5C 172.904,118.265 170.237,118.599 167.5,118.5C 163.473,115.431 160.14,111.765 157.5,107.5C 150.91,104.5 145.41,106.166 141,112.5C 140.22,114.387 140.387,116.054 141.5,117.5C 141.491,119.308 141.991,120.975 143,122.5C 145.741,125.729 148.241,129.062 150.5,132.5C 149.609,131.89 148.609,131.557 147.5,131.5C 145.529,129.192 143.529,126.858 141.5,124.5C 139.12,121.238 138.12,117.571 138.5,113.5C 138.845,110.802 140.178,108.802 142.5,107.5C 143.872,106.488 145.205,105.488 146.5,104.5C 151.129,101.563 155.462,101.896 159.5,105.5C 161.177,107.54 162.844,109.54 164.5,111.5C 167.129,117.034 170.629,117.701 175,113.5C 178.999,105.841 180.832,97.6748 180.5,89C 180.558,71.3884 175.892,55.2217 166.5,40.5C 167.651,39.269 168.817,39.269 170,40.5C 181.581,54.7376 187.748,71.071 188.5,89.5 Z"/></g>
<g><path style="opacity:1" fill="#a17542" d="M 185.5,81.5 C 184.778,81.0825 184.278,80.4158 184,79.5C 183.828,86.0133 183.328,92.3466 182.5,98.5C 182.666,90.8261 182.5,83.1594 182,75.5C 181.699,72.0199 180.865,68.6866 179.5,65.5C 179.833,64.8333 180.167,64.1667 180.5,63.5C 182.796,69.3514 184.462,75.3514 185.5,81.5 Z"/></g>
<g><path style="opacity:1" fill="#dfdfdf" d="M 164.5,111.5 C 162.844,109.54 161.177,107.54 159.5,105.5C 160.821,102.402 161.488,98.9018 161.5,95C 161.333,91.5 161.167,88 161,84.5C 154.774,90.0574 149.274,96.224 144.5,103C 144.836,104.03 145.503,104.53 146.5,104.5C 145.205,105.488 143.872,106.488 142.5,107.5C 141.749,106.427 140.749,106.26 139.5,107C 136,110.5 132.5,114 129,117.5C 128.506,119.134 128.34,120.801 128.5,122.5C 127.11,121.101 126.11,119.434 125.5,117.5C 128.58,113.916 131.913,110.416 135.5,107C 128.689,106.797 122.356,108.297 116.5,111.5C 114.194,111.007 111.861,110.674 109.5,110.5C 109.519,108.94 109.852,107.44 110.5,106C 108.411,98.4775 106.244,90.9775 104,83.5C 100.73,92.925 98.5629,102.425 97.5,112C 98.0848,113.302 98.7515,114.469 99.5,115.5C 96.9092,119.769 95.9092,124.436 96.5,129.5C 93.4465,128.679 90.4465,128.679 87.5,129.5C 84.6288,132.852 83.2955,136.519 83.5,140.5C 88.7704,138.19 93.437,135.19 97.5,131.5C 98.8897,132.899 99.8897,134.566 100.5,136.5C 98.8058,135.314 97.1392,135.481 95.5,137C 91.1667,139.5 86.8333,142 82.5,144.5C 81.7025,144.957 81.3691,145.624 81.5,146.5C 75.9474,142.737 71.2807,138.07 67.5,132.5C 82.6044,130.694 89.271,122.028 87.5,106.5C 89.3307,107.052 90.9974,107.052 92.5,106.5C 90.3682,101.604 88.5349,96.6041 87,91.5C 83.8307,91.0883 81.3307,92.4217 79.5,95.5C 76.2356,94.6758 72.9023,94.3424 69.5,94.5C 74.7187,94.6167 79.052,92.6167 82.5,88.5C 70.7648,86.2464 59.0981,84.0797 47.5,82C 52.3992,87.4035 57.7326,92.2368 63.5,96.5C 62.8333,97.8333 61.8333,98.8333 60.5,99.5C 56.561,93.8918 51.8943,88.8918 46.5,84.5C 45.5025,92.1378 45.1692,99.8045 45.5,107.5C 44.8333,107.5 44.1667,107.5 43.5,107.5C 43.7827,97.3724 43.2827,87.3724 42,77.5C 43,76.8333 44,76.1667 45,75.5C 51.691,65.7826 57.0243,55.4493 61,44.5C 65.4939,44.5826 69.9939,43.7493 74.5,42C 84.2295,37.7223 94.0628,33.5556 104,29.5C 113.897,33.5322 123.73,37.6989 133.5,42C 136.136,42.9343 138.803,43.7676 141.5,44.5C 143.41,43.4519 145.244,43.4519 147,44.5C 147.241,47.2889 147.908,49.9556 149,52.5C 154.114,62.2487 159.947,71.4154 166.5,80C 166.37,81.0588 165.87,81.8921 165,82.5C 164.5,92.1609 164.334,101.828 164.5,111.5 Z"/></g>
<g><path style="opacity:1" fill="#fcfcfc" d="M 126.5,66.5 C 127.573,67.2506 127.74,68.2506 127,69.5C 124.962,74.4077 122.795,79.2411 120.5,84C 115.447,83.4737 111.114,81.307 107.5,77.5C 113.697,73.5691 120.031,69.9024 126.5,66.5 Z"/></g>
<g><path style="opacity:1" fill="#fcfcfc" d="M 80.5,66.5 C 87.3643,69.7897 94.031,73.4564 100.5,77.5C 97.1181,79.5743 93.7848,81.741 90.5,84C 89.0563,84.7805 87.723,84.6139 86.5,83.5C 84.0947,77.9492 82.0947,72.2825 80.5,66.5 Z"/></g>
<g><path style="opacity:1" fill="#fdfdfd" d="M 129.5,66.5 C 131.527,66.3379 133.527,66.5045 135.5,67C 143.52,71.0344 151.52,75.0344 159.5,79C 147.86,80.5873 136.36,82.754 125,85.5C 124.5,85.1667 124,84.8333 123.5,84.5C 126.105,78.6863 128.105,72.6863 129.5,66.5 Z"/></g>
<g><path style="opacity:1" fill="#fcfcfc" d="M 73.5,66.5 C 74.5,66.5 75.5,66.5 76.5,66.5C 78.7243,72.3317 81.0576,78.165 83.5,84C 72.8828,83.6275 62.5495,81.9608 52.5,79C 54.0905,76.8674 56.0905,75.2007 58.5,74C 63.7983,72.0175 68.7983,69.5175 73.5,66.5 Z"/></g>
<g><path style="opacity:1" fill="#fdfdfd" d="M 109.5,57.5 C 115.454,58.5691 121.12,60.4025 126.5,63C 120.163,67.0122 113.663,70.8455 107,74.5C 106.709,68.6646 107.543,62.998 109.5,57.5 Z"/></g>
<g><path style="opacity:1" fill="#fcfcfc" d="M 93.5,57.5 C 95.4672,57.2606 97.3005,57.5939 99,58.5C 100.507,63.8344 101.007,69.1677 100.5,74.5C 96.538,71.5926 92.2046,69.426 87.5,68C 85.5,66.3333 83.5,64.6667 81.5,63C 85.6443,61.2411 89.6443,59.4077 93.5,57.5 Z"/></g>
<g><path style="opacity:1" fill="#fcfcfc" d="M 142.5,50.5 C 143.822,50.33 144.989,50.6634 146,51.5C 150.5,59.1667 155,66.8333 159.5,74.5C 159,74.8333 158.5,75.1667 158,75.5C 150.01,71.5172 142.01,67.5172 134,63.5C 133.333,62.5 133.333,61.5 134,60.5C 137.419,57.5876 140.252,54.2543 142.5,50.5 Z"/></g>
<g><path style="opacity:1" fill="#fdfdfd" d="M 61.5,50.5 C 65.302,51.7786 68.4687,54.1119 71,57.5C 72.7509,59.212 73.4175,61.212 73,63.5C 64.7543,67.5536 56.5876,71.887 48.5,76.5C 48.1667,76.1667 47.8333,75.8333 47.5,75.5C 52.9703,67.5537 57.6369,59.2204 61.5,50.5 Z"/></g>
<g><path style="opacity:1" fill="#fcfcfc" d="M 103.5,40.5 C 104.971,43.7433 105.971,47.2433 106.5,51C 106.604,56.8479 105.77,62.6813 104,68.5C 102.848,65.2644 102.015,61.9311 101.5,58.5C 100.85,52.3875 101.517,46.3875 103.5,40.5 Z"/></g>
<g><path style="opacity:1" fill="#fbfbfb" d="M 106.5,36.5 C 112.479,44.2871 118.813,51.7871 125.5,59C 111.793,57.7973 105.46,50.2973 106.5,36.5 Z"/></g>
<g><path style="opacity:1" fill="#fbfbfb" d="M 100.5,36.5 C 102.228,49.9575 96.2277,57.4575 82.5,59C 88.7135,51.6253 94.7135,44.1253 100.5,36.5 Z"/></g>
<g><path style="opacity:1" fill="#fdfdfd" d="M 108.5,34.5 C 119.771,38.7222 130.771,43.3889 141.5,48.5C 138.382,51.9069 135.382,55.4069 132.5,59C 131.167,59.6667 129.833,59.6667 128.5,59C 121.567,50.9157 114.901,42.749 108.5,34.5 Z"/></g>
<g><path style="opacity:1" fill="#fdfdfd" d="M 97.5,34.5 C 98.2389,34.369 98.9056,34.5357 99.5,35C 92.863,42.9752 86.1964,50.9752 79.5,59C 77.1913,59.7562 75.1913,59.2562 73.5,57.5C 71.9016,54.3986 69.7349,51.7319 67,49.5C 66.5172,48.552 66.3505,47.552 66.5,46.5C 77.0541,42.8744 87.3874,38.8744 97.5,34.5 Z"/></g>
<g><path style="opacity:1" fill="#fbfbfb" d="M 100.5,80.5 C 101.097,80.7352 101.43,81.2352 101.5,82C 99.3857,89.8598 97.219,97.6931 95,105.5C 93.5285,101.419 91.8618,97.4189 90,93.5C 89.3333,91.5 89.3333,89.5 90,87.5C 93.6152,85.2527 97.1152,82.9194 100.5,80.5 Z"/></g>
<g><path style="opacity:1" fill="#fcfcfc" d="M 106.5,81.5 C 111.494,83.0031 115.494,85.8365 118.5,90C 116.8,95.2301 114.966,100.397 113,105.5C 110.643,97.5441 108.476,89.5441 106.5,81.5 Z"/></g>
<g><path style="opacity:1" fill="#fbfbfb" d="M 69.5,94.5 C 67.3146,94.7036 65.3146,95.3702 63.5,96.5C 57.7326,92.2368 52.3992,87.4035 47.5,82C 59.0981,84.0797 70.7648,86.2464 82.5,88.5C 79.052,92.6167 74.7187,94.6167 69.5,94.5 Z"/></g>
<g><path style="opacity:1" fill="#fcfcfc" d="M 156.5,81.5 C 159.907,81.1253 160.407,82.1253 158,84.5C 152.86,88.9729 148.027,93.8063 143.5,99C 141.101,99.711 138.768,99.5443 136.5,98.5C 132.711,95.5494 129.044,92.3827 125.5,89C 135.955,86.7623 146.289,84.2623 156.5,81.5 Z"/></g>
<g><path style="opacity:1" fill="#fbfbfb" d="M 159.5,105.5 C 155.462,101.896 151.129,101.563 146.5,104.5C 145.503,104.53 144.836,104.03 144.5,103C 149.274,96.224 154.774,90.0574 161,84.5C 161.167,88 161.333,91.5 161.5,95C 161.488,98.9018 160.821,102.402 159.5,105.5 Z"/></g>
<g><path style="opacity:1" fill="#f9f9f9" d="M 60.5,99.5 C 56.4779,104.011 51.4779,106.678 45.5,107.5C 45.1692,99.8045 45.5025,92.1378 46.5,84.5C 51.8943,88.8918 56.561,93.8918 60.5,99.5 Z"/></g>
<g><path style="opacity:1" fill="#fbfbfb" d="M 109.5,110.5 C 105.352,110.574 102.019,112.241 99.5,115.5C 98.7515,114.469 98.0848,113.302 97.5,112C 98.5629,102.425 100.73,92.925 104,83.5C 106.244,90.9775 108.411,98.4775 110.5,106C 109.852,107.44 109.519,108.94 109.5,110.5 Z"/></g>
<g><path style="opacity:1" fill="#f8f7f8" d="M 87.5,106.5 C 85.5428,102.225 82.8762,98.5588 79.5,95.5C 81.3307,92.4217 83.8307,91.0883 87,91.5C 88.5349,96.6041 90.3682,101.604 92.5,106.5C 90.9974,107.052 89.3307,107.052 87.5,106.5 Z"/></g>
<g><path style="opacity:1" fill="#fcfcfc" d="M 120.5,90.5 C 126.609,93.0729 131.943,96.9062 136.5,102C 130.033,104.361 123.366,106.194 116.5,107.5C 116.167,107.167 115.833,106.833 115.5,106.5C 117.571,101.286 119.238,95.9531 120.5,90.5 Z"/></g>
<g><path style="opacity:1" fill="#34312f" d="M 43.5,107.5 C 44.1667,107.5 44.8333,107.5 45.5,107.5C 51.4779,106.678 56.4779,104.011 60.5,99.5C 61.8333,98.8333 62.8333,97.8333 63.5,96.5C 65.3146,95.3702 67.3146,94.7036 69.5,94.5C 72.9023,94.3424 76.2356,94.6758 79.5,95.5C 82.8762,98.5588 85.5428,102.225 87.5,106.5C 89.271,122.028 82.6044,130.694 67.5,132.5C 66.8444,131.722 66.0111,131.056 65,130.5C 64.2352,130.57 63.7352,130.903 63.5,131.5C 59.9058,131.939 57.5725,133.772 56.5,137C 62.1861,144.185 67.0194,152.018 71,160.5C 73.2528,166.726 72.7528,172.726 69.5,178.5C 70.09,179.799 71.09,180.632 72.5,181C 94.2808,186.663 115.614,185.329 136.5,177C 139.921,175.301 142.921,173.135 145.5,170.5C 146.552,170.351 147.552,170.517 148.5,171C 146.574,171.422 145.574,172.589 145.5,174.5C 102.078,196.69 63.5777,190.024 30,154.5C 9.29396,126.774 4.62729,96.4405 16,63.5C 20.0373,52.0665 26.5373,42.3998 35.5,34.5C 36.5827,35.365 36.7494,36.365 36,37.5C 30.0698,46.0307 25.7364,55.364 23,65.5C 20.2829,79.0877 22.9496,91.4211 31,102.5C 34.3304,106.248 38.497,107.915 43.5,107.5 Z"/></g>
<g><path style="opacity:1" fill="#dedbce" d="M 82.5,121.5 C 82.6658,116.821 82.4992,112.155 82,107.5C 80.117,106.347 79.2837,104.681 79.5,102.5C 74.971,101.598 70.6377,100.265 66.5,98.5C 72.3683,95.2186 77.535,96.2186 82,101.5C 86.4309,108.152 86.5976,114.818 82.5,121.5 Z"/></g>
<g><path style="opacity:1" fill="#736d74" d="M 21.5,61.5 C 21.6716,60.5084 21.3382,59.8417 20.5,59.5C 21.1283,56.91 22.295,54.5766 24,52.5C 23.3594,55.5267 22.5261,58.5267 21.5,61.5 Z"/></g>
<g><path style="opacity:1" fill="#f9f9f8" d="M 125.5,117.5 C 122.477,115.467 119.477,113.467 116.5,111.5C 122.356,108.297 128.689,106.797 135.5,107C 131.913,110.416 128.58,113.916 125.5,117.5 Z"/></g>
<g><path style="opacity:1" fill="#faf9fa" d="M 142.5,107.5 C 140.178,108.802 138.845,110.802 138.5,113.5C 136.882,116.171 136.215,119.171 136.5,122.5C 133.833,122.5 131.167,122.5 128.5,122.5C 128.34,120.801 128.506,119.134 129,117.5C 132.5,114 136,110.5 139.5,107C 140.749,106.26 141.749,106.427 142.5,107.5 Z"/></g>
<g><path style="opacity:1" fill="#f5deba" d="M 20.5,59.5 C 21.3382,59.8417 21.6716,60.5084 21.5,61.5C 18.3047,74.2152 19.4714,86.5486 25,98.5C 32.4226,111.087 42.5893,113.92 55.5,107C 59.0613,103.927 62.728,101.094 66.5,98.5C 70.6377,100.265 74.971,101.598 79.5,102.5C 79.2837,104.681 80.117,106.347 82,107.5C 82.4992,112.155 82.6658,116.821 82.5,121.5C 81.3201,124.845 78.9868,127.011 75.5,128C 69.7964,128.367 64.1298,129.034 58.5,130C 57.0692,130.465 55.9025,131.299 55,132.5C 54.3333,135.167 54.3333,137.833 55,140.5C 58.4665,144.12 61.2999,148.12 63.5,152.5C 63.2471,154.827 63.9137,156.827 65.5,158.5C 65.0688,159.293 64.7355,160.127 64.5,161C 67.1591,165.9 66.9925,170.733 64,175.5C 63.7104,173.956 63.0437,172.623 62,171.5C 60.3005,172.406 58.4672,172.739 56.5,172.5C 24.9043,153.65 10.4043,125.65 13,88.5C 13.8067,78.2689 16.3067,68.6022 20.5,59.5 Z"/></g>
<g><path style="opacity:1" fill="#d8ded2" d="M 157.5,107.5 C 155.143,107.337 152.81,107.503 150.5,108C 148.473,109.879 146.14,111.046 143.5,111.5C 143.296,113.685 142.63,115.685 141.5,117.5C 140.387,116.054 140.22,114.387 141,112.5C 145.41,106.166 150.91,104.5 157.5,107.5 Z"/></g>
<g><path style="opacity:1" fill="#2f2f32" d="M 109.5,110.5 C 111.861,110.674 114.194,111.007 116.5,111.5C 119.477,113.467 122.477,115.467 125.5,117.5C 126.11,119.434 127.11,121.101 128.5,122.5C 129.512,125.257 130.512,127.924 131.5,130.5C 131.5,130.833 131.5,131.167 131.5,131.5C 132.363,137.455 132.697,143.455 132.5,149.5C 133.791,149.737 134.791,149.404 135.5,148.5C 139.532,147.918 143.199,146.584 146.5,144.5C 148.017,144.489 149.184,143.823 150,142.5C 150.796,139.961 150.629,137.628 149.5,135.5C 149.267,133.938 148.6,132.605 147.5,131.5C 148.609,131.557 149.609,131.89 150.5,132.5C 151.674,133.514 152.34,134.847 152.5,136.5C 153.382,140.909 152.048,144.409 148.5,147C 144.354,148.937 140.021,150.271 135.5,151C 134.058,151.377 133.058,152.21 132.5,153.5C 132.5,154.833 132.5,156.167 132.5,157.5C 131.732,156.737 131.232,155.737 131,154.5C 130.667,147.833 130.333,141.167 130,134.5C 129.14,129.12 126.974,124.453 123.5,120.5C 118.867,114.897 112.867,112.73 105.5,114C 104.058,114.377 103.058,115.21 102.5,116.5C 100.029,118.884 98.6955,121.884 98.5,125.5C 100.113,130.06 102.28,134.393 105,138.5C 107.237,145.845 105.07,151.345 98.5,155C 92.277,155.398 86.6103,153.731 81.5,150C 74.5983,144.6 68.5983,138.433 63.5,131.5C 63.7352,130.903 64.2352,130.57 65,130.5C 66.0111,131.056 66.8444,131.722 67.5,132.5C 71.2807,138.07 75.9474,142.737 81.5,146.5C 86.7864,152.203 93.1197,153.703 100.5,151C 104.404,145.984 104.404,141.15 100.5,136.5C 99.8897,134.566 98.8897,132.899 97.5,131.5C 97.6716,130.508 97.3382,129.842 96.5,129.5C 95.9092,124.436 96.9092,119.769 99.5,115.5C 102.019,112.241 105.352,110.574 109.5,110.5 Z"/></g>
<g><path style="opacity:1" fill="#d0e8e9" d="M 123.5,120.5 C 121.002,119.088 118.336,117.921 115.5,117C 110.928,116.674 106.595,116.508 102.5,116.5C 103.058,115.21 104.058,114.377 105.5,114C 112.867,112.73 118.867,114.897 123.5,120.5 Z"/></g>
<g><path style="opacity:1" fill="#d7dbdb" d="M 188.5,89.5 C 190.088,102.11 189.255,114.443 186,126.5C 185.329,127.252 184.496,127.586 183.5,127.5C 185.605,122.744 186.605,117.744 186.5,112.5C 187.302,111.048 187.802,109.382 188,107.5C 188.499,101.509 188.666,95.5092 188.5,89.5 Z"/></g>
<g><path style="opacity:1" fill="#dddddd" d="M 138.5,113.5 C 138.12,117.571 139.12,121.238 141.5,124.5C 138.432,124.547 135.432,125.047 132.5,126C 131.62,127.356 131.286,128.856 131.5,130.5C 130.512,127.924 129.512,125.257 128.5,122.5C 131.167,122.5 133.833,122.5 136.5,122.5C 136.215,119.171 136.882,116.171 138.5,113.5 Z"/></g>
<g><path style="opacity:1" fill="#f9fafa" d="M 141.5,124.5 C 143.529,126.858 145.529,129.192 147.5,131.5C 148.6,132.605 149.267,133.938 149.5,135.5C 149.5,137.5 149.5,139.5 149.5,141.5C 143.248,138.705 137.248,135.372 131.5,131.5C 131.5,131.167 131.5,130.833 131.5,130.5C 131.286,128.856 131.62,127.356 132.5,126C 135.432,125.047 138.432,124.547 141.5,124.5 Z"/></g>
<g><path style="opacity:1" fill="#83b6bc" d="M 102.5,116.5 C 106.595,116.508 110.928,116.674 115.5,117C 118.336,117.921 121.002,119.088 123.5,120.5C 126.974,124.453 129.14,129.12 130,134.5C 130.333,141.167 130.667,147.833 131,154.5C 131.232,155.737 131.732,156.737 132.5,157.5C 135.145,163.478 139.478,167.812 145.5,170.5C 142.921,173.135 139.921,175.301 136.5,177C 115.614,185.329 94.2808,186.663 72.5,181C 71.09,180.632 70.09,179.799 69.5,178.5C 72.7528,172.726 73.2528,166.726 71,160.5C 67.0194,152.018 62.1861,144.185 56.5,137C 57.5725,133.772 59.9058,131.939 63.5,131.5C 68.5983,138.433 74.5983,144.6 81.5,150C 86.6103,153.731 92.277,155.398 98.5,155C 105.07,151.345 107.237,145.845 105,138.5C 102.28,134.393 100.113,130.06 98.5,125.5C 98.6955,121.884 100.029,118.884 102.5,116.5 Z"/></g>
<g><path style="opacity:1" fill="#fbfbfb" d="M 96.5,129.5 C 97.3382,129.842 97.6716,130.508 97.5,131.5C 93.437,135.19 88.7704,138.19 83.5,140.5C 83.2955,136.519 84.6288,132.852 87.5,129.5C 90.4465,128.679 93.4465,128.679 96.5,129.5 Z"/></g>
<g><path style="opacity:1" fill="#f7f6f6" d="M 100.5,136.5 C 104.404,141.15 104.404,145.984 100.5,151C 93.1197,153.703 86.7864,152.203 81.5,146.5C 81.3691,145.624 81.7025,144.957 82.5,144.5C 86.8333,142 91.1667,139.5 95.5,137C 97.1392,135.481 98.8058,135.314 100.5,136.5 Z"/></g>
<g><path style="opacity:1" fill="#d4d4d4" d="M 131.5,131.5 C 137.248,135.372 143.248,138.705 149.5,141.5C 149.5,139.5 149.5,137.5 149.5,135.5C 150.629,137.628 150.796,139.961 150,142.5C 149.184,143.823 148.017,144.489 146.5,144.5C 142.136,141.889 137.969,138.889 134,135.5C 133.833,137.667 133.667,139.833 133.5,142C 133.533,144.61 134.2,146.777 135.5,148.5C 134.791,149.404 133.791,149.737 132.5,149.5C 132.697,143.455 132.363,137.455 131.5,131.5 Z"/></g>
<g><path style="opacity:1" fill="#f8f9f7" d="M 146.5,144.5 C 143.199,146.584 139.532,147.918 135.5,148.5C 134.2,146.777 133.533,144.61 133.5,142C 133.667,139.833 133.833,137.667 134,135.5C 137.969,138.889 142.136,141.889 146.5,144.5 Z"/></g>
<g><path style="opacity:1" fill="#392e26" d="M 186.5,85.5 C 187.658,94.3444 187.658,103.344 186.5,112.5C 186.605,117.744 185.605,122.744 183.5,127.5C 176.743,147.926 164.076,163.592 145.5,174.5C 145.574,172.589 146.574,171.422 148.5,171C 147.552,170.517 146.552,170.351 145.5,170.5C 139.478,167.812 135.145,163.478 132.5,157.5C 132.5,156.167 132.5,154.833 132.5,153.5C 133.325,155.81 134.658,157.81 136.5,159.5C 139.561,163.728 143.394,167.061 148,169.5C 170.356,154.15 183.023,132.817 186,105.5C 186.5,98.8417 186.666,92.175 186.5,85.5 Z"/></g>
<g><path style="opacity:1" fill="#c29f67" d="M 152.5,136.5 C 154.448,141.01 153.448,144.844 149.5,148C 145.008,150.121 140.342,151.621 135.5,152.5C 135.448,154.903 135.781,157.236 136.5,159.5C 134.658,157.81 133.325,155.81 132.5,153.5C 133.058,152.21 134.058,151.377 135.5,151C 140.021,150.271 144.354,148.937 148.5,147C 152.048,144.409 153.382,140.909 152.5,136.5 Z"/></g>
<g><path style="opacity:1" fill="#d19839" d="M 185.5,81.5 C 185.433,82.9587 185.766,84.2921 186.5,85.5C 186.666,92.175 186.5,98.8417 186,105.5C 183.023,132.817 170.356,154.15 148,169.5C 143.394,167.061 139.561,163.728 136.5,159.5C 135.781,157.236 135.448,154.903 135.5,152.5C 140.342,151.621 145.008,150.121 149.5,148C 153.448,144.844 154.448,141.01 152.5,136.5C 152.34,134.847 151.674,133.514 150.5,132.5C 148.241,129.062 145.741,125.729 143,122.5C 141.991,120.975 141.491,119.308 141.5,117.5C 142.63,115.685 143.296,113.685 143.5,111.5C 146.14,111.046 148.473,109.879 150.5,108C 152.81,107.503 155.143,107.337 157.5,107.5C 160.14,111.765 163.473,115.431 167.5,118.5C 170.377,121.127 173.044,120.794 175.5,117.5C 179.776,111.936 182.11,105.602 182.5,98.5C 183.328,92.3466 183.828,86.0133 184,79.5C 184.278,80.4158 184.778,81.0825 185.5,81.5 Z"/></g>
<g><path style="opacity:1" fill="#e2c4af" d="M 175.5,117.5 C 173.044,120.794 170.377,121.127 167.5,118.5C 170.237,118.599 172.904,118.265 175.5,117.5 Z"/></g>
<g><path style="opacity:1" fill="#e9d3b8" d="M 63.5,152.5 C 70.3481,159.532 71.8481,167.532 68,176.5C 67.2753,177.059 66.4419,177.392 65.5,177.5C 62.3137,176.076 59.3137,174.409 56.5,172.5C 58.4672,172.739 60.3005,172.406 62,171.5C 63.0437,172.623 63.7104,173.956 64,175.5C 66.9925,170.733 67.1591,165.9 64.5,161C 64.7355,160.127 65.0688,159.293 65.5,158.5C 63.9137,156.827 63.2471,154.827 63.5,152.5 Z"/></g>
</svg>
